<svg width="8" height="5" viewBox="0 0 8 5" fill="none" xmlns="http://www.w3.org/2000/svg">
<path d="M4.31216 4.72247L7.8722 1.16237C7.9546 1.08003 8 0.970107 8 0.852905C8 0.735703 7.9546 0.625785 7.8722 0.543444L7.61008 0.281267C7.43929 0.110667 7.1617 0.110667 6.99116 0.281267L4.00166 3.27077L1.00884 0.27795C0.926432 0.195609 0.816579 0.150146 0.699441 0.150146C0.582174 0.150146 0.472322 0.195609 0.389851 0.27795L0.127804 0.540127C0.0453982 0.622533 4.51387e-07 0.732385 4.46264e-07 0.849588C4.41141e-07 0.96679 0.0453982 1.07671 0.127804 1.15905L3.69109 4.72247C3.77376 4.805 3.88413 4.85034 4.00146 4.85008C4.11925 4.85034 4.22956 4.805 4.31216 4.72247Z" fill="white"/>
</svg>
