<svg width="26" height="26" viewBox="0 0 26 26" fill="none" xmlns="http://www.w3.org/2000/svg">
<circle cx="13" cy="13" r="12.5" stroke="white" stroke-opacity="0.2"/>
<path d="M19.0067 7.14453C17.9019 6.64576 16.7172 6.27827 15.4786 6.06778C15.456 6.06371 15.4335 6.07387 15.4219 6.09416C15.2695 6.36082 15.1007 6.70865 14.9825 6.98207C13.6503 6.7858 12.3248 6.7858 11.0199 6.98207C10.9016 6.70259 10.7267 6.36082 10.5737 6.09416C10.5621 6.07454 10.5395 6.06438 10.517 6.06778C9.279 6.27757 8.09431 6.64506 6.98884 7.14453C6.97925 7.1486 6.97106 7.15536 6.96561 7.16415C4.7185 10.4675 4.1029 13.6896 4.40488 16.8718C4.40623 16.8873 4.41514 16.9022 4.42743 16.9117C5.91 17.983 7.34617 18.6334 8.75562 19.0645C8.77817 19.0713 8.80207 19.0632 8.81642 19.0449C9.14982 18.5969 9.44702 18.1245 9.70184 17.6277C9.71688 17.5987 9.70252 17.5641 9.67178 17.5526C9.20036 17.3767 8.75149 17.1621 8.31968 16.9185C8.28552 16.8989 8.28278 16.8508 8.31423 16.8278C8.40509 16.7608 8.49599 16.6911 8.58276 16.6207C8.59847 16.6079 8.62034 16.6052 8.63879 16.6132C11.4755 17.8876 14.5466 17.8876 17.3498 16.6132C17.3683 16.6045 17.3901 16.6072 17.4065 16.62C17.4933 16.6904 17.5842 16.7608 17.6757 16.8278C17.7071 16.8508 17.7051 16.8989 17.671 16.9185C17.2391 17.1668 16.7903 17.3766 16.3182 17.5519C16.2874 17.5634 16.2738 17.5986 16.2888 17.6277C16.5491 18.1238 16.8463 18.5962 17.1736 19.0442C17.1872 19.0632 17.2118 19.0713 17.2344 19.0645C18.6507 18.6334 20.0868 17.983 21.5694 16.9117C21.5824 16.9022 21.5906 16.888 21.592 16.8724C21.9534 13.1935 20.9866 9.99778 19.0292 7.16482C19.0244 7.15536 19.0163 7.1486 19.0067 7.14453ZM10.1255 14.9342C9.27149 14.9342 8.56776 14.1627 8.56776 13.2152C8.56776 12.2677 9.25781 11.4962 10.1255 11.4962C11 11.4962 11.6969 12.2744 11.6833 13.2152C11.6833 14.1627 10.9932 14.9342 10.1255 14.9342ZM15.885 14.9342C15.031 14.9342 14.3273 14.1627 14.3273 13.2152C14.3273 12.2677 15.0174 11.4962 15.885 11.4962C16.7596 11.4962 17.4565 12.2744 17.4428 13.2152C17.4428 14.1627 16.7596 14.9342 15.885 14.9342Z" fill="white"/>
</svg>
