<svg width="26" height="26" viewBox="0 0 26 26" fill="none" xmlns="http://www.w3.org/2000/svg">
<circle cx="13" cy="13" r="12.5" stroke="white" stroke-opacity="0.2"/>
<path d="M20.2221 8.98932C19.7065 9.21552 19.157 9.36545 18.5841 9.43825C19.1735 9.08638 19.6233 8.53345 19.8347 7.86698C19.2853 8.19458 18.6786 8.42598 18.0321 8.55512C17.5103 7.99958 16.7667 7.65552 15.9555 7.65552C14.3817 7.65552 13.1146 8.93298 13.1146 10.4991C13.1146 10.7244 13.1337 10.9411 13.1805 11.1473C10.8171 11.0321 8.7258 9.89932 7.32094 8.17378C6.3163 9.9839 7.4388 11.468 8.19454 11.9733C7.7378 11.9646 7.28974 11.832 6.91014 11.6231C6.91014 13.0342 7.89554 14.1833 9.18774 14.4476C8.9052 14.5414 8.28796 14.5923 7.9042 14.4927C8.27254 15.6185 9.31774 16.4461 10.5605 16.473C9.59334 17.2296 8.16802 17.8463 6.35547 17.6465C7.61474 18.4585 9.10714 18.9222 10.7165 18.9222C15.9477 18.9222 18.8077 14.5889 18.8077 10.8327C18.8077 10.7071 18.8034 10.5857 18.7973 10.4653C19.3615 10.0649 19.8356 9.56478 20.2221 8.98932Z" fill="white"/>
</svg>
