<svg width="26" height="26" viewBox="0 0 26 26" fill="none" xmlns="http://www.w3.org/2000/svg">
<circle cx="13" cy="13" r="12.5" stroke="white" stroke-opacity="0.2"/>
<path d="M10.8326 14.0448C10.7709 14.0448 9.47692 14.0452 8.88012 14.0446C8.57288 14.0444 8.46326 13.9308 8.46326 13.6125C8.46287 12.7949 8.46267 11.9773 8.46326 11.1597C8.46346 10.8455 8.57936 10.7256 8.88267 10.7253C9.47947 10.7249 10.7664 10.7251 10.8326 10.7251C10.8326 10.6691 10.8324 9.48876 10.8326 8.94519C10.833 8.14156 10.9723 7.3723 11.3689 6.66796C11.7749 5.94704 12.3658 5.45321 13.1231 5.16768C13.6081 4.98466 14.1116 4.91166 14.6263 4.91126C15.2703 4.91085 15.9142 4.91146 16.5583 4.91267C16.8351 4.91308 16.9579 5.03906 16.9585 5.32602C16.9597 6.09507 16.9597 6.86412 16.9585 7.63297C16.9581 7.92295 16.8404 8.03943 16.5574 8.04267C16.0295 8.04853 15.5013 8.04489 14.974 8.06673C14.4415 8.06673 14.1613 8.33448 14.1613 8.90191C14.1486 9.50211 14.156 10.1029 14.156 10.7249C14.2059 10.7249 15.7215 10.7247 16.4299 10.7249C16.7516 10.7249 16.8617 10.8388 16.8617 11.1719C16.8617 11.985 16.8615 12.7983 16.8609 13.6115C16.8607 13.9397 16.7573 14.0444 16.4336 14.0446C15.7252 14.045 14.2155 14.0448 14.1495 14.0448V20.6262C14.1495 20.977 14.0423 21.0888 13.706 21.0888C12.886 21.0888 12.0659 21.089 11.2459 21.0888C10.9487 21.0888 10.8328 20.9699 10.8328 20.664C10.8326 18.5206 10.8326 14.1201 10.8326 14.0448Z" fill="white"/>
</svg>
