<svg width="26" height="26" viewBox="0 0 26 26" fill="none" xmlns="http://www.w3.org/2000/svg">
<circle cx="13" cy="13" r="12.5" stroke="white" stroke-opacity="0.2"/>
<path d="M15.8727 9.60095C15.31 6.98743 14.1099 5.33398 12.9999 5.33398C11.89 5.33398 10.6899 6.98743 10.1272 9.60095H15.8727Z" fill="white"/>
<path d="M9.7998 12.801C9.79967 13.5145 9.84725 14.2273 9.94221 14.9344H16.0578C16.1528 14.2273 16.2004 13.5145 16.2003 12.801C16.2004 12.0874 16.1528 11.3747 16.0578 10.6675H9.94221C9.84725 11.3747 9.79967 12.0874 9.7998 12.801Z" fill="white"/>
<path d="M10.1272 16.0012C10.6899 18.6147 11.89 20.2682 12.9999 20.2682C14.1099 20.2682 15.31 18.6147 15.8727 16.0012H10.1272Z" fill="white"/>
<path d="M16.9652 9.60086H20.3254C19.8205 8.45185 19.0534 7.43715 18.0855 6.63816C17.1177 5.83917 15.976 5.27811 14.7522 5C15.764 5.8902 16.5577 7.53618 16.9652 9.60086Z" fill="white"/>
<path d="M20.7089 10.6675H17.1353C17.2233 11.3752 17.2673 12.0878 17.267 12.801C17.2671 13.5142 17.2229 14.2267 17.1348 14.9344H20.7084C21.0973 13.5387 21.0973 12.0632 20.7084 10.6675H20.7089Z" fill="white"/>
<path d="M14.7522 20.6021C15.9762 20.3241 17.1181 19.7631 18.0861 18.9641C19.0542 18.1651 19.8215 17.1504 20.3265 16.0012H16.9662C16.5577 18.0659 15.764 19.7119 14.7522 20.6021Z" fill="white"/>
<path d="M9.0348 16.0012H5.67456C6.17955 17.1504 6.94685 18.1651 7.9149 18.9641C8.88294 19.7631 10.0248 20.3241 11.2488 20.6021C10.2359 19.7119 9.44229 18.0659 9.0348 16.0012Z" fill="white"/>
<path d="M11.2478 5C10.0238 5.27796 8.88196 5.83895 7.91392 6.63795C6.94587 7.43695 6.17857 8.45173 5.67358 9.60086H9.03382C9.44238 7.53618 10.236 5.8902 11.2478 5Z" fill="white"/>
<path d="M8.73303 12.801C8.73296 12.0878 8.77714 11.3752 8.86531 10.6675H5.29173C4.90276 12.0632 4.90276 13.5387 5.29173 14.9344H8.86531C8.77714 14.2267 8.73296 13.5142 8.73303 12.801Z" fill="white"/>
</svg>
