<svg width="26" height="26" viewBox="0 0 26 26" fill="none" xmlns="http://www.w3.org/2000/svg">
<circle cx="13" cy="13" r="12.5" stroke="white" stroke-opacity="0.2"/>
<path d="M12.9999 6.13428C9.05049 6.13428 5.83545 8.76005 5.83545 11.9871C5.83545 14.8774 8.38474 17.299 11.8267 17.7593C12.0601 17.8089 12.3778 17.9146 12.4584 18.1139C12.5301 18.2948 12.5055 18.5743 12.4812 18.7629L12.3832 19.3754C12.3563 19.5563 12.2399 20.0877 13.0096 19.7628C13.7803 19.4392 17.1386 17.3126 18.6431 15.5722C19.6723 14.4379 20.1643 13.2754 20.1643 11.9869C20.1643 8.76005 16.9493 6.13428 12.9999 6.13428ZM10.1956 13.9059H8.77108C8.5651 13.9059 8.39495 13.7345 8.39495 13.528V10.6615C8.39495 10.4543 8.5651 10.283 8.77108 10.283C8.97885 10.283 9.14721 10.4544 9.14721 10.6615V13.1493H10.1956C10.4033 13.1493 10.5711 13.3195 10.5711 13.5278C10.5711 13.7345 10.4028 13.9059 10.1956 13.9059ZM11.6678 13.528C11.6678 13.7345 11.4995 13.9059 11.2912 13.9059C11.0852 13.9059 10.9168 13.7345 10.9168 13.528V10.6615C10.9168 10.4543 11.0852 10.283 11.293 10.283C11.4995 10.283 11.6678 10.4544 11.6678 10.6615V13.528ZM15.0955 13.528C15.0955 13.6904 14.9916 13.8343 14.8376 13.8862C14.7994 13.8987 14.7582 13.9047 14.7188 13.9047C14.5929 13.9047 14.4854 13.8504 14.4143 13.7542L12.9558 11.7612V13.5273C12.9558 13.7338 12.7893 13.9052 12.5792 13.9052C12.3726 13.9052 12.2054 13.7338 12.2054 13.5273V10.6615C12.2054 10.499 12.3087 10.3552 12.462 10.3038C12.4978 10.29 12.5432 10.2841 12.5779 10.2841C12.6943 10.2841 12.8018 10.3468 12.8734 10.4369L14.3434 12.4376V10.6613C14.3434 10.4541 14.5118 10.2828 14.7195 10.2828C14.9255 10.2828 15.0957 10.4543 15.0957 10.6613V13.528H15.0955ZM17.3971 11.7159C17.6054 11.7159 17.7732 11.8873 17.7732 12.0951C17.7732 12.3023 17.6054 12.4736 17.3971 12.4736H16.3493V13.1493H17.3971C17.6054 13.1493 17.7732 13.3195 17.7732 13.5278C17.7732 13.7343 17.6054 13.9057 17.3971 13.9057H15.9726C15.7666 13.9057 15.5983 13.7343 15.5983 13.5278V10.6615C15.5983 10.4543 15.7666 10.283 15.9744 10.283H17.3989C17.6054 10.283 17.7732 10.4544 17.7732 10.6615C17.7732 10.871 17.6054 11.04 17.3971 11.04H16.3493V11.7157H17.3971V11.7159Z" fill="white"/>
</svg>
