<svg width="19" height="19" viewBox="0 0 19 19" xmlns="http://www.w3.org/2000/svg">
<path d="M16.1016 15.135L18.787 17.8203C18.9158 17.9638 18.9802 18.1249 18.9802 18.3037C18.9802 18.4824 18.9121 18.6401 18.776 18.7767C18.6398 18.9132 18.4822 18.9813 18.303 18.9808C18.1238 18.9804 17.9627 18.916 17.8197 18.7877L15.1343 16.1023C13.2294 17.6634 11.1168 18.3758 8.79622 18.2397C6.47568 18.1036 4.46336 17.1546 2.75928 15.3928C1.12624 13.5452 0.331258 11.4612 0.374342 9.14065C0.417425 6.82011 1.29124 4.77182 2.99578 2.99578C4.77182 1.29124 6.82011 0.417425 9.14065 0.374342C11.4612 0.331258 13.5452 1.12624 15.3928 2.75928C17.1546 4.46382 18.1036 6.47613 18.2397 8.79622C18.3758 11.1163 17.6634 13.229 16.1023 15.1343L16.1016 15.135ZM9.31253 16.875C11.4612 16.8177 13.2443 16.0801 14.662 14.662C16.0796 13.2439 16.8173 11.4607 16.875 9.31253C16.8177 7.16386 16.0801 5.38072 14.662 3.96309C13.2439 2.54547 11.4607 1.80778 9.31253 1.75003C7.16386 1.80732 5.38072 2.54501 3.96309 3.96309C2.54547 5.38118 1.80778 7.16432 1.75003 9.31253C1.80732 11.4612 2.54501 13.2443 3.96309 14.662C5.38118 16.0796 7.16432 16.8173 9.31253 16.875Z"/>
</svg>
